<svg width="206.38mm" height="192.7mm" version="1.1" viewBox="0 0 206.37848 192.69882" xmlns="http://www.w3.org/2000/svg">
	<g transform="translate(-1.5116 -50.948)">
		<g fill="#000000" letter-spacing="0px" word-spacing="0px">
			<flowRoot font-family="Zapfino" font-size="40px" style="line-height:1.25" xml:space="preserve">
				<flowRegion>
					<rect x="-4170.1" y="382.52" width="174.11" height="140" />
				</flowRegion>
				<flowPara />
			</flowRoot>
			<g font-family="'Marker Felt'">
				<text x="-1074.2084" y="302.29166" font-size="10.583px" stroke-width=".26458" style="line-height:1.25" xml:space="preserve">
					<tspan x="-1074.2084" y="312.08124" stroke-width=".26458" />
				</text>
				<flowRoot font-size="40px" style="line-height:1.25" xml:space="preserve">
					<flowRegion>
						<rect x="-3e3" y="310.52" width="420" height="240" />
					</flowRegion>
					<flowPara />
				</flowRoot>
				<text x="-718.60834" y="125.55" font-size="10.583px" stroke-width=".26458" style="line-height:1.25" xml:space="preserve">
					<tspan x="-718.60834" y="135.33958" stroke-width=".26458" />
				</text>
				<text x="-1091.1416" y="202.80833" font-size="10.583px" stroke-width=".26458" style="line-height:1.25" xml:space="preserve">
					<tspan x="-1091.1416" y="212.59792" stroke-width=".26458" />
				</text>
				<flowRoot font-size="40px" style="line-height:1.25" xml:space="preserve">
					<flowRegion>
						<rect x="-3348" y="-213.48" width="1180" height="448" />
					</flowRegion>
					<flowPara />
				</flowRoot>
				<flowRoot font-size="40px" style="line-height:1.25" xml:space="preserve">
					<flowRegion>
						<rect x="-3128" y="374.52" width="676" height="288" />
					</flowRegion>
					<flowPara />
				</flowRoot>
				<text x="-900.64166" y="297" font-size="10.583px" stroke-width=".26458" style="line-height:1.25" xml:space="preserve">
					<tspan x="-900.64166" y="306.78958" stroke-width=".26458" />
				</text>
				<flowRoot transform="scale(.26458)" font-size="40px" style="line-height:1.25" xml:space="preserve">
					<flowRegion>
						<rect x="-1400" y="-853.48" width="1212" height="1212" />
					</flowRegion>
					<flowPara />
				</flowRoot>
				<flowRoot font-size="85.333px" style="line-height:1.25" xml:space="preserve">
					<flowRegion>
						<rect x="-605" y="18.52" width="133" height="96" />
					</flowRegion>
					<flowPara />
				</flowRoot>
				<text x="-655.10834" y="5.9583335" font-size="22.578px" stroke-width=".26458" style="line-height:1.25" xml:space="preserve">
					<tspan x="-655.10834" y="26.842777" stroke-width=".26458" />
				</text>
			</g>
		</g>
		<g>
			<flowRoot fill="#000000" font-family="'Marker Felt'" font-size="85.333px" letter-spacing="0px" word-spacing="0px" style="line-height:1.25" xml:space="preserve">
				<flowRegion>
					<rect x="-3232" y="-229.48" width="1912" height="1036" />
				</flowRegion>
				<flowPara />
			</flowRoot>
			<g fill-rule="evenodd">
				<path d="m105.6 50.962-0.67671 0.37368-85.256 47.123-0.91064 96.365 85.026 48.809 85.933-47.497 0.0152-1.5828 0.89544-94.783zm-0.0258 3.1489 82.293 47.24-0.88026 93.158-83.179 45.976-82.293-47.241 0.88102-93.158z" color="#000000" color-rendering="auto" dominant-baseline="auto" fill="#fff" image-rendering="auto" shape-rendering="auto" solid-color="#000000" style="font-feature-settings:normal;font-variant-alternates:normal;font-variant-caps:normal;font-variant-ligatures:normal;font-variant-numeric:normal;font-variant-position:normal;isolation:auto;mix-blend-mode:normal;shape-padding:0;text-decoration-color:#000000;text-decoration-line:none;text-decoration-style:solid;text-indent:0;text-orientation:mixed;text-transform:none;white-space:normal" />
				<g stroke="#000">
					<path d="m2.5189 141.01l17.598-10.16 15.268 15.268-20.414 11.786z" stroke-width="1.3718" />
					<path d="m190.95 154.78-17.677 17.102s0.47152-0.45613 15.556 14.137c0 0-0.75148-0.27094 17.904-18.319z" stroke-width="1.5455" />
					<path transform="matrix(.40873 -.011426 .011151 .39879 60.504 102.41)" d="m302.87 239.68-206.44 109.35-197.92-124.11 8.5243-233.45 206.44-109.35 197.92 124.11z" fill="#18627C" stroke-opacity=".94118" stroke-width="13.688" />
					<path d="m2.5189 141.01v47.148l204.34-21.4v-47.148z" color="#000000" color-rendering="auto" dominant-baseline="auto" image-rendering="auto" shape-rendering="auto" solid-color="#000000" stroke-opacity=".94118" stroke-width="1.8647" style="font-feature-settings:normal;font-variant-alternates:normal;font-variant-caps:normal;font-variant-ligatures:normal;font-variant-numeric:normal;font-variant-position:normal;isolation:auto;mix-blend-mode:normal;shape-padding:0;text-decoration-color:#000000;text-decoration-line:none;text-decoration-style:solid;text-indent:0;text-orientation:mixed;text-transform:none;white-space:normal" />
				</g>
			</g>
		</g>
		<rect transform="matrix(.99456 -.10416 0 1 0 0)" x="3.4702" y="142.2" width="203.58" height="45.283" fill-opacity="0" stroke-opacity="0" />
		<text transform="matrix(.82704 -.086615 0 1.2091 0 0)" x="27.410732" y="148.70062" fill="#ffffff" fill-opacity=".94118" fill-rule="evenodd" font-family="Futura" font-size="33.481px" letter-spacing="0px" stroke="#000000" stroke-opacity=".94118" stroke-width=".76822" word-spacing="0px" style="line-height:1.25" xml:space="preserve">
			<tspan x="-21.410732" y="148.70062" fill="#ffffff" fill-opacity=".94118" fill-rule="evenodd" font-family="Futura" stroke="#000000" stroke-opacity=".94118" stroke-width=".76822">
				LOGO LOGO
			</tspan>
		</text>
		<path d="m2.5189 141.01z" fill="none" stroke="#000" stroke-width=".10289px" />
	</g>
</svg>
